<svg width="28" height="22" viewBox="0 0 28 22" fill="none" xmlns="http://www.w3.org/2000/svg">
<path d="M11.3124 16.709C9.70435 16.709 8.41162 17.8845 8.41162 19.3119C8.41162 20.7673 9.70435 21.9428 11.3124 21.9428C12.9204 21.9428 14.2131 20.7673 14.2131 19.3119C14.2131 17.8565 12.9204 16.709 11.3124 16.709ZM11.3124 20.2635C10.7448 20.2635 10.3034 19.8437 10.3034 19.3119C10.3034 18.8081 10.7448 18.3883 11.3124 18.3883C11.8799 18.3883 12.3213 18.8081 12.3213 19.3119C12.3213 19.8157 11.8799 20.2635 11.3124 20.2635Z" fill="#9758A6"/>
<path d="M22.8834 16.709C21.2754 16.709 19.9827 17.8845 19.9827 19.3119C19.9827 20.7673 21.2754 21.9428 22.8834 21.9428C24.4915 21.9428 25.7842 20.7673 25.7842 19.3119C25.7527 17.8565 24.4599 16.709 22.8834 16.709ZM22.8834 20.2635C22.3159 20.2635 21.8745 19.8437 21.8745 19.3119C21.8745 18.8081 22.3159 18.3883 22.8834 18.3883C23.451 18.3883 23.8924 18.8081 23.8924 19.3119C23.8609 19.8157 23.4194 20.2635 22.8834 20.2635Z" fill="#9758A6"/>
<path d="M26.8563 3.27463C26.6671 3.05073 26.3833 2.93877 26.0996 2.93877H7.40225L6.99236 1.76326C6.614 0.699708 5.54198 0 4.28078 0H1.34849C0.812478 0 0.402588 0.363848 0.402588 0.83965C0.402588 1.31545 0.812478 1.6793 1.34849 1.6793H4.28078C4.69067 1.6793 5.06903 1.90321 5.19515 2.26705L8.63192 11.895L8.60039 11.979C8.1905 12.8466 8.28509 13.8262 8.85263 14.6379C9.4517 15.4216 10.4291 15.8974 11.5012 15.8974H24.4285C24.9645 15.8974 25.3744 15.5335 25.3744 15.0577C25.3744 14.5819 24.9645 14.2181 24.4285 14.2181H11.5012C11.0597 14.2181 10.6814 14.0222 10.4607 13.7143C10.24 13.4064 10.1769 13.0146 10.3345 12.6787H21.4016C22.915 12.6787 24.2393 11.8111 24.7122 10.5236L27.0139 4.03032C27.077 3.77842 27.0139 3.49854 26.8563 3.27463ZM21.37 10.9994H10.2715L8.00132 4.61807H24.8068L22.915 10.0198C22.6628 10.6076 22.0637 10.9994 21.37 10.9994Z" fill="#9758A6"/>
</svg>
